HIERARCHY
ROOT Hips
{
	OFFSET 193.743393 91.357132 495.993408
	CHANNELS 6 Xposition Yposition Zposition Zrotation Yrotation Xrotation 
	JOINT LeftUpLeg
	{
		OFFSET 0.103458 1.857834 10.548510
		CHANNELS 3 Zrotation Yrotation Xrotation
		JOINT LeftLeg
		{
			OFFSET 43.500004 -0.000038 -0.000006
			CHANNELS 3 Zrotation Yrotation Xrotation
			JOINT LeftFoot
			{
				OFFSET 42.372192 0.000015 -0.000002
				CHANNELS 3 Zrotation Yrotation Xrotation
				JOINT LeftToe
				{
					OFFSET 17.300009 0.000003 -0.000006
					CHANNELS 3 Zrotation Yrotation Xrotation
					End Site
					{
						OFFSET 0.000000 0.000000 0.000000
					}
				}
			}
		}
	}
	JOINT RightUpLeg
	{
		OFFSET 0.103463 1.857841 -10.548498
		CHANNELS 3 Zrotation Yrotation Xrotation
		JOINT RightLeg
		{
			OFFSET 43.500042 -0.000046 0.000025
			CHANNELS 3 Zrotation Yrotation Xrotation
			JOINT RightFoot
			{
				OFFSET 42.372261 -0.000008 -0.000003
				CHANNELS 3 Zrotation Yrotation Xrotation
				JOINT RightToe
				{
					OFFSET 17.300001 -0.000003 0.000011
					CHANNELS 3 Zrotation Yrotation Xrotation
					End Site
					{
						OFFSET 0.000000 0.000000 0.000000
					}
				}
			}
		}
	}
	JOINT Spine
	{
		OFFSET 6.901968 -2.603734 0.000007
		CHANNELS 3 Zrotation Yrotation Xrotation
		JOINT Spine1
		{
			OFFSET 12.588101 0.000000 -0.000008
			CHANNELS 3 Zrotation Yrotation Xrotation
			JOINT Spine2
			{
				OFFSET 12.343197 0.000010 -0.000007
				CHANNELS 3 Zrotation Yrotation Xrotation
				JOINT Neck
				{
					OFFSET 25.832905 -0.000008 0.000010
					CHANNELS 3 Zrotation Yrotation Xrotation
					JOINT Head
					{
						OFFSET 11.766598 -0.000002 -0.000010
						CHANNELS 3 Zrotation Yrotation Xrotation
						End Site
						{
							OFFSET 0.000000 0.000000 0.000000
						}
					}
				}
				JOINT LeftShoulder
				{
					OFFSET 19.745899 -1.480373 6.000105
					CHANNELS 3 Zrotation Yrotation Xrotation
					JOINT LeftArm
					{
						OFFSET 11.284138 -0.000004 -0.000017
						CHANNELS 3 Zrotation Yrotation Xrotation
						JOINT LeftForeArm
						{
							OFFSET 33.000050 0.000013 0.000033
							CHANNELS 3 Zrotation Yrotation Xrotation
							JOINT LeftHand
							{
								OFFSET 25.200001 -0.000009 -0.000001
								CHANNELS 3 Zrotation Yrotation Xrotation
								End Site
								{
									OFFSET 0.000000 0.000000 0.000000
								}
							}
						}
					}
				}
				JOINT RightShoulder
				{
					OFFSET 19.746101 -1.480377 -6.000072
					CHANNELS 3 Zrotation Yrotation Xrotation
					JOINT RightArm
					{
						OFFSET 11.284133 -0.000004 -0.000014
						CHANNELS 3 Zrotation Yrotation Xrotation
						JOINT RightForeArm
						{
							OFFSET 33.000099 0.000009 0.000023
							CHANNELS 3 Zrotation Yrotation Xrotation
							JOINT RightHand
							{
								OFFSET 25.199770 0.000143 0.000407
								CHANNELS 3 Zrotation Yrotation Xrotation
								End Site
								{
									OFFSET 0.000000 0.000000 0.000000
								}
							}
						}
					}
				}
			}
		}
	}
}
MOTION
Frames: 14
Frame Time: 0.033333
158.111801 82.197441 -493.256897 91.447729 2.624403 -77.320986 163.308348 -32.364397 168.327963 -28.002768 1.483644 -15.963504 84.849289 9.821108 -4.840011 21.454551 0.003096 -0.000001 152.371289 5.517902 172.757081 -53.994404 -3.978826 -1.015634 102.995797 1.451708 14.157870 21.454562 -0.003110 -0.000019 6.902705 0.350956 0.586281 3.796147 0.682675 1.183645 3.478097 0.689948 1.179504 0.759479 -2.818240 -13.757097 -21.990578 2.170612 -15.725385 -134.681331 -83.734274 -47.344453 36.540658 57.932408 62.779704 -28.593598 -16.164333 1.277663 13.980451 -1.607763 -2.227802 160.515306 80.883612 -18.243131 -15.994251 -54.834623 -9.447270 -60.296391 10.659082 -1.847300 -1.097789 -1.895694 -17.109895 
162.653198 82.861931 -492.964905 90.396563 2.646102 -80.009826 164.516444 -30.752899 166.486571 -37.963974 0.578162 -8.995394 86.218516 4.978247 -5.861049 21.454550 0.003100 -0.000000 151.175145 1.587797 171.560487 -54.306602 -4.678763 0.060571 102.039017 0.697061 11.523654 21.454557 -0.003111 -0.000018 7.009377 0.140359 0.359635 4.006752 0.268276 0.723861 3.688688 0.272790 0.722232 0.312502 -2.150550 -12.874615 -22.395210 1.618956 -14.458078 -134.714813 -83.896163 -47.302321 41.119849 57.895484 66.515920 -28.088810 -15.903737 1.251824 13.420462 -1.333881 -4.431603 160.734473 81.167045 -18.007519 -19.594798 -56.038034 -6.658864 -61.100646 10.670064 -1.878036 -0.214869 -2.585042 -21.600215 
166.721207 84.148201 -492.349304 90.003035 3.027952 -79.974002 163.061272 -26.579297 167.278272 -48.910981 1.324653 -5.384267 86.456377 2.211508 -7.533672 21.454555 0.003093 -0.000001 151.067050 -0.599506 172.487207 -51.941263 -4.806635 0.311150 99.508452 0.579089 8.922621 21.454560 -0.003110 -0.000016 7.007934 0.147262 -0.036564 4.002942 0.295621 -0.068070 3.684846 0.295342 -0.069855 0.230729 -1.229645 -13.111626 -23.190903 1.124139 -14.322774 -144.846688 -84.558999 -37.058233 40.111676 58.493419 68.677614 -27.597547 -15.362653 1.208507 12.971898 -0.362047 -4.872894 169.985500 80.620343 -8.656867 -17.876746 -56.828168 -7.201249 -63.719627 10.082296 -1.937477 -1.099282 -0.222364 -25.091593 
170.833694 85.575531 -491.698212 89.972006 3.570810 -78.755981 161.523565 -20.893296 168.072323 -58.176512 1.996321 -5.690765 86.259087 2.302957 -8.119723 21.454548 0.003091 -0.000000 151.100778 -2.006499 173.567592 -48.775709 -3.476951 0.690878 96.049207 0.234506 5.958580 21.454558 -0.003107 -0.000018 6.919514 0.303925 -0.391028 3.824160 0.620379 -0.771925 3.506071 0.615849 -0.775667 0.367586 -0.416125 -14.027339 -23.637470 0.612324 -14.892203 -161.302239 -85.060922 -20.457692 35.202406 59.876751 68.971223 -27.613849 -15.061493 1.189551 12.400512 0.355891 -3.511876 -179.353637 79.225755 2.134420 -11.601364 -56.208909 -12.024209 -66.939501 9.100390 -1.996175 -3.827348 4.276313 -23.968332 
175.125000 86.784332 -491.218903 89.643357 3.891185 -78.057007 162.001828 -15.448708 165.462439 -64.440157 1.930650 -5.843794 85.699429 2.179807 -9.163554 21.454551 0.003091 -0.000002 151.039429 -3.098299 175.078840 -46.069793 -1.856056 0.827553 92.181408 -0.197907 2.473805 21.454555 -0.003109 -0.000019 6.847637 0.414052 -0.636479 3.677876 0.847801 -1.259679 3.359824 0.840320 -1.264781 0.720111 0.260325 -14.867281 -23.827619 0.067624 -15.399058 -173.923814 -85.229272 -7.737028 28.596761 61.925002 67.238698 -28.650396 -15.427381 1.231612 12.037999 0.029545 -1.687239 -173.241000 77.936215 8.342790 -3.750042 -54.517293 -18.595211 -69.596814 8.052242 -2.030702 -6.382942 8.934437 -18.282924 
179.491699 87.416237 -490.861694 88.970577 3.976359 -78.043032 164.103915 -10.455788 159.711898 -67.772627 1.799189 -3.541735 85.685058 -0.116833 -12.822511 21.454557 0.003094 -0.000000 150.607816 -4.048092 178.683541 -44.633674 -1.672054 -0.369625 88.807827 0.052279 -1.207409 21.454560 -0.003115 -0.000020 6.822226 0.421211 -0.882927 3.625065 0.869460 -1.752466 3.307099 0.859003 -1.757680 1.224651 1.111639 -15.268633 -24.244569 -0.572323 -15.388133 179.347995 -85.430483 -0.961595 21.272175 63.916200 63.849394 -31.015155 -16.552586 1.349313 11.944229 -1.496866 -0.637808 -170.162415 77.345288 11.479987 3.787698 -52.724740 -24.639535 -71.403843 7.122844 -2.040344 -7.137990 11.731549 -11.949943 
183.899597 87.348007 -490.597595 88.311648 3.926487 -77.958010 167.044010 -5.843508 153.323349 -68.547697 1.109482 2.088335 85.255466 -4.786759 -16.293619 21.454562 0.003098 0.000001 149.820077 -5.278600 -176.761129 -44.399805 -2.490888 -1.929340 86.476424 0.434795 -4.705874 21.454557 -0.003107 -0.000017 6.808365 0.390873 -1.242647 3.595149 0.819570 -2.472777 3.277326 0.804774 -2.477672 1.764277 2.446607 -15.337673 -24.933244 -1.417631 -14.850119 173.463869 -85.764828 4.954707 13.004351 64.994106 59.171015 -34.570634 -18.222427 1.533344 11.745405 -3.878444 -0.442453 -166.738797 77.094708 14.975137 10.549531 -51.229554 -29.595244 -72.275300 6.491438 -2.032603 -6.496991 11.868062 -8.946983 
188.542007 86.579742 -490.363190 88.766375 3.543368 -76.961977 169.987877 -2.003994 148.660433 -66.935567 -0.070234 9.202627 83.825826 -10.934460 -20.430107 21.454545 0.003092 0.000001 148.781423 -7.679095 -173.067281 -44.750436 -2.644408 -2.370761 84.969520 0.138400 -7.279838 21.454558 -0.003108 -0.000016 6.798227 0.555800 -1.742241 3.566202 1.164240 -3.466956 3.248658 1.143433 -3.473911 2.456564 4.212652 -15.335837 -25.656777 -2.360863 -14.118537 165.532025 -86.115360 12.922367 3.420711 64.617517 53.070645 -38.702444 -20.027412 1.751465 11.230813 -6.260420 -0.155852 -161.462202 76.623876 20.368223 16.740596 -49.963694 -33.820549 -72.002229 6.279278 -2.006649 -5.847690 10.456705 -9.722734 
193.471893 85.427933 -490.223511 89.676108 2.908408 -74.710023 172.773200 1.361300 146.471494 -62.839735 -1.620971 15.205201 83.328274 -15.900462 -23.044835 21.454551 0.003092 -0.000001 147.961227 -10.328091 -170.400639 -44.473879 -1.658413 -1.873439 83.748043 -0.937614 -10.107638 21.454558 -0.003112 -0.000019 6.779699 0.794091 -2.395866 3.512435 1.659459 -4.767367 3.195381 1.630805 -4.777264 3.485257 5.980243 -15.482019 -26.237082 -3.124610 -13.661692 156.132879 -86.241985 22.365191 -7.415327 62.623716 45.426424 -42.517053 -21.465497 1.950376 10.476095 -7.739233 0.956707 -155.309513 75.741327 26.672485 23.002221 -48.878333 -37.834371 -70.665062 6.389811 -1.959473 -5.963042 9.656490 -11.577187 
198.544998 84.353241 -490.112701 90.358403 2.440242 -70.982010 174.640069 4.540204 146.716370 -56.526919 -2.774637 16.755950 79.296891 -17.033677 -19.804748 21.454555 0.003091 0.000005 147.133667 -11.987208 -167.681226 -43.218241 -0.099550 -0.937328 82.527291 -2.194255 -12.082574 21.454558 -0.003105 -0.000019 6.711615 0.981124 -3.196634 3.353983 2.052999 -6.364952 3.037799 2.014740 -6.377152 4.558768 7.539950 -16.013080 -26.652175 -3.584914 -13.820241 147.173610 -85.982676 31.382831 -19.111081 59.170803 36.688983 -45.073904 -22.222965 2.076524 9.714090 -7.985755 2.566393 -149.832412 74.505070 32.310234 29.688906 -47.971151 -41.494400 -68.641188 6.595859 -1.891811 -6.672747 10.636121 -12.043307 
203.842499 83.845490 -489.732910 90.555331 2.537475 -66.344974 174.826710 8.083602 148.394452 -50.074347 -1.863828 12.615334 73.644773 -8.831834 0.020366 21.454543 0.003086 -0.000004 145.486923 -12.023799 -164.219126 -41.646993 1.174773 -0.842463 79.242530 -2.563522 -11.676740 21.454560 -0.003108 -0.000020 6.647211 0.985479 -4.004643 3.209760 2.079781 -7.982154 2.894783 2.031841 -7.994453 5.095384 9.240902 -17.063295 -27.162322 -3.702675 -14.627016 137.261558 -85.477536 41.374561 -30.822875 54.468996 27.743455 -45.868053 -22.331165 2.108227 9.173120 -7.342766 3.922882 -146.188287 73.127557 36.091191 36.491481 -48.073467 -44.046005 -65.939473 6.841227 -1.801634 -7.526020 12.857087 -11.069695 
209.854599 82.865921 -488.806000 91.762540 2.415042 -61.768003 174.438920 9.562705 151.765519 -47.518623 0.478499 6.727141 88.477137 -2.141900 13.365119 21.454557 0.003093 0.000001 141.556955 -11.157701 -159.641670 -42.332105 2.342459 -3.995485 73.525101 0.580429 -6.652571 21.454557 -0.003108 -0.000015 6.756894 1.052932 -4.599562 3.412119 2.238985 -9.168222 3.098180 2.183960 -9.181413 4.993410 11.259633 -18.459017 -27.960725 -3.253481 -15.938742 124.749198 -84.955307 53.975860 -40.890010 48.482438 20.105396 -45.146143 -22.044582 2.066830 8.933437 -6.470711 4.672085 -144.729796 72.153948 37.624681 43.795371 -49.660103 -46.348554 -62.103939 7.334279 -1.688209 -8.257865 15.494868 -9.845246 
215.344299 82.175133 -487.840393 90.877286 2.858594 -59.114994 173.673925 10.965105 155.500171 -45.753771 1.054962 1.786280 98.805421 0.032474 14.463453 21.454551 0.003093 0.000001 139.016821 -6.952894 -157.387940 -43.872491 2.281053 -9.489656 72.543747 12.991072 19.153804 21.454558 -0.003116 -0.000017 7.000148 0.580162 -4.856655 3.931923 1.323085 -9.691622 3.618651 1.264964 -9.699324 4.923353 12.922848 -19.761238 -28.766489 -1.995746 -17.614262 112.243176 -84.547340 66.547926 -48.655061 42.407080 14.583668 -43.727414 -21.769988 2.005871 8.950518 -5.926125 4.815448 -144.975300 72.129578 37.373484 50.746577 -52.544905 -49.604816 -57.043718 8.189334 -1.561759 -8.464677 18.699248 -8.394527 
219.875702 81.108124 -487.134491 87.682656 3.777703 -58.721001 172.942575 12.829000 157.660751 -45.930451 0.034578 -0.968102 105.241597 0.994122 13.763092 21.454557 0.003099 0.000001 138.118214 -0.588102 -157.962728 -47.044304 1.626577 -14.433955 76.692492 22.656197 41.250139 21.454555 -0.003099 -0.000031 7.280672 -0.357431 -4.857445 4.571032 -0.524358 -9.725176 4.257859 -0.582657 -9.721886 5.550320 13.273368 -20.614187 -28.976258 -0.073470 -19.489176 104.685777 -84.489993 74.118119 -53.905769 37.154371 11.506741 -42.659756 -21.920304 1.984571 9.114076 -5.937219 4.658768 -146.469500 72.875639 35.811775 55.486821 -54.704505 -54.340736 -51.322253 9.036731 -1.424763 -7.558532 21.917580 -5.721721 
